<svg xmlns="http://www.w3.org/2000/svg" viewBox="0 0 800 420" font-family="system-ui, -apple-system, sans-serif">
  <rect width="800" height="420" fill="#fafafa" rx="8"/>

  <text x="400" y="36" text-anchor="middle" font-size="20" font-weight="600" fill="#1a1a1a">How event activity becomes a compounding community loop</text>

  <circle cx="400" cy="210" r="74" fill="#0f766e"/>
  <text x="400" y="198" text-anchor="middle" font-size="15" font-weight="600" fill="#ffffff">Event anchor</text>
  <text x="400" y="220" text-anchor="middle" font-size="12" fill="#ccfbf1">Conference, booth,</text>
  <text x="400" y="238" text-anchor="middle" font-size="12" fill="#ccfbf1">meetup or trade show</text>

  <rect x="88" y="92" width="170" height="92" rx="8" fill="#ffffff" stroke="#d6d3d1"/>
  <text x="173" y="118" text-anchor="middle" font-size="13" font-weight="600" fill="#1a1a1a">Before</text>
  <text x="173" y="140" text-anchor="middle" font-size="11" fill="#57534e">Map attendees</text>
  <text x="173" y="157" text-anchor="middle" font-size="11" fill="#57534e">Line up creators</text>
  <text x="173" y="174" text-anchor="middle" font-size="11" fill="#57534e">Plan smaller moments</text>

  <rect x="542" y="92" width="170" height="92" rx="8" fill="#ffffff" stroke="#d6d3d1"/>
  <text x="627" y="118" text-anchor="middle" font-size="13" font-weight="600" fill="#1a1a1a">During</text>
  <text x="627" y="140" text-anchor="middle" font-size="11" fill="#57534e">Use booth as hub</text>
  <text x="627" y="157" text-anchor="middle" font-size="11" fill="#57534e">Make introductions</text>
  <text x="627" y="174" text-anchor="middle" font-size="11" fill="#57534e">Deepen trust</text>

  <rect x="542" y="250" width="170" height="92" rx="8" fill="#ffffff" stroke="#d6d3d1"/>
  <text x="627" y="276" text-anchor="middle" font-size="13" font-weight="600" fill="#1a1a1a">After</text>
  <text x="627" y="298" text-anchor="middle" font-size="11" fill="#57534e">Follow up properly</text>
  <text x="627" y="315" text-anchor="middle" font-size="11" fill="#57534e">Move into programmes</text>
  <text x="627" y="332" text-anchor="middle" font-size="11" fill="#57534e">Create momentum</text>

  <rect x="88" y="250" width="170" height="92" rx="8" fill="#ffffff" stroke="#d6d3d1"/>
  <text x="173" y="276" text-anchor="middle" font-size="13" font-weight="600" fill="#1a1a1a">Compounding effects</text>
  <text x="173" y="298" text-anchor="middle" font-size="11" fill="#57534e">Creator content</text>
  <text x="173" y="315" text-anchor="middle" font-size="11" fill="#57534e">Partner referrals</text>
  <text x="173" y="332" text-anchor="middle" font-size="11" fill="#57534e">Warmer market trust</text>

  <path d="M258 138 C310 138, 318 155, 336 177" fill="none" stroke="#a8a29e" stroke-width="2.5"/>
  <polygon points="330,173 343,183 327,185" fill="#a8a29e"/>

  <path d="M474 177 C492 155, 500 138, 542 138" fill="none" stroke="#a8a29e" stroke-width="2.5"/>
  <polygon points="535,131 548,138 535,145" fill="#a8a29e"/>

  <path d="M627 184 C627 206, 627 224, 627 250" fill="none" stroke="#a8a29e" stroke-width="2.5"/>
  <polygon points="620,242 627,255 634,242" fill="#a8a29e"/>

  <path d="M542 296 C500 296, 492 279, 474 257" fill="none" stroke="#a8a29e" stroke-width="2.5"/>
  <polygon points="480,249 467,255 483,261" fill="#a8a29e"/>

  <path d="M336 257 C318 279, 310 296, 258 296" fill="none" stroke="#a8a29e" stroke-width="2.5"/>
  <polygon points="265,289 252,296 265,303" fill="#a8a29e"/>

  <path d="M173 250 C173 224, 173 206, 173 184" fill="none" stroke="#a8a29e" stroke-width="2.5"/>
  <polygon points="166,192 173,179 180,192" fill="#a8a29e"/>

  <rect x="210" y="370" width="380" height="28" rx="14" fill="#ffffff" stroke="#e7e5e4"/>
  <text x="400" y="389" text-anchor="middle" font-size="11" fill="#57534e">The event is not the outcome. It is the moment that creates stronger relationships and future activity.</text>
</svg>
