<svg xmlns="http://www.w3.org/2000/svg" viewBox="0 0 800 300" font-family="system-ui, -apple-system, sans-serif">
  <rect width="800" height="300" fill="#fafafa" rx="8"/>

  <text x="400" y="35" text-anchor="middle" font-size="18" font-weight="600" fill="#1a1a1a">How Creators Move Through Your Programme</text>

  <!-- Stage 1: User / Fan -->
  <rect x="28" y="58" width="160" height="150" rx="6" fill="#f0f0f0" stroke="#ddd" stroke-width="1"/>
  <text x="108" y="83" text-anchor="middle" font-size="12" font-weight="600" fill="#555">User / Fan</text>
  <line x1="48" y1="92" x2="168" y2="92" stroke="#ddd" stroke-width="1"/>
  <text x="108" y="110" text-anchor="middle" font-size="10" fill="#888">Using your product.</text>
  <text x="108" y="124" text-anchor="middle" font-size="10" fill="#888">Might be posting</text>
  <text x="108" y="138" text-anchor="middle" font-size="10" fill="#888">about it organically.</text>
  <text x="108" y="162" text-anchor="middle" font-size="10" fill="#aaa">No formal</text>
  <text x="108" y="176" text-anchor="middle" font-size="10" fill="#aaa">relationship yet</text>
  <text x="108" y="196" text-anchor="middle" font-size="10" font-style="italic" fill="#aaa">Identify and engage</text>

  <!-- Arrow 1→2 -->
  <line x1="192" y1="133" x2="208" y2="133" stroke="#ccc" stroke-width="2"/>
  <polygon points="206,128 216,133 206,138" fill="#ccc"/>

  <!-- Stage 2: Ambassador -->
  <rect x="218" y="58" width="160" height="150" rx="6" fill="#666"/>
  <text x="298" y="83" text-anchor="middle" font-size="12" font-weight="600" fill="#fff">Ambassador</text>
  <line x1="238" y1="92" x2="358" y2="92" stroke="#777" stroke-width="1"/>
  <text x="298" y="110" text-anchor="middle" font-size="10" fill="#ddd">Affiliate code or</text>
  <text x="298" y="124" text-anchor="middle" font-size="10" fill="#ddd">commission. Access</text>
  <text x="298" y="138" text-anchor="middle" font-size="10" fill="#ddd">benefits. No fixed</text>
  <text x="298" y="152" text-anchor="middle" font-size="10" fill="#ddd">deliverables required.</text>
  <text x="298" y="176" text-anchor="middle" font-size="10" fill="#aaa">Volume tier —</text>
  <text x="298" y="190" text-anchor="middle" font-size="10" fill="#aaa">ambient awareness</text>
  <text x="298" y="208" text-anchor="middle" font-size="10" font-style="italic" fill="#888">3–12 months</text>

  <!-- Arrow 2→3 -->
  <line x1="382" y1="133" x2="398" y2="133" stroke="#ccc" stroke-width="2"/>
  <polygon points="396,128 406,133 396,138" fill="#ccc"/>

  <!-- Stage 3: Formal Partner -->
  <rect x="408" y="58" width="160" height="150" rx="6" fill="#333"/>
  <text x="488" y="83" text-anchor="middle" font-size="12" font-weight="600" fill="#fff">Formal Partner</text>
  <line x1="428" y1="92" x2="548" y2="92" stroke="#444" stroke-width="1"/>
  <text x="488" y="110" text-anchor="middle" font-size="10" fill="#aaa">Agreed deliverables.</text>
  <text x="488" y="124" text-anchor="middle" font-size="10" fill="#aaa">Paid sponsorship.</text>
  <text x="488" y="138" text-anchor="middle" font-size="10" fill="#aaa">Structured content</text>
  <text x="488" y="152" text-anchor="middle" font-size="10" fill="#aaa">calendar and brief.</text>
  <text x="488" y="176" text-anchor="middle" font-size="10" fill="#777">Credibility tier —</text>
  <text x="488" y="190" text-anchor="middle" font-size="10" fill="#777">trust and authority</text>
  <text x="488" y="208" text-anchor="middle" font-size="10" font-style="italic" fill="#666">Earned, not bought</text>

  <!-- Arrow 3→4 -->
  <line x1="572" y1="133" x2="588" y2="133" stroke="#ccc" stroke-width="2"/>
  <polygon points="586,128 596,133 586,138" fill="#ccc"/>

  <!-- Stage 4: Strategic Partner -->
  <rect x="598" y="58" width="172" height="150" rx="6" fill="#1a1a1a"/>
  <text x="684" y="83" text-anchor="middle" font-size="12" font-weight="600" fill="#fff">Strategic Partner</text>
  <line x1="618" y1="92" x2="750" y2="92" stroke="#333" stroke-width="1"/>
  <text x="684" y="110" text-anchor="middle" font-size="10" fill="#aaa">Co-creation. Product</text>
  <text x="684" y="124" text-anchor="middle" font-size="10" fill="#aaa">input. Launch events.</text>
  <text x="684" y="138" text-anchor="middle" font-size="10" fill="#aaa">Long-term commercial</text>
  <text x="684" y="152" text-anchor="middle" font-size="10" fill="#aaa">relationship.</text>
  <text x="684" y="176" text-anchor="middle" font-size="10" fill="#777">Ecosystem tier —</text>
  <text x="684" y="190" text-anchor="middle" font-size="10" fill="#777">brand and category</text>
  <text x="684" y="204" text-anchor="middle" font-size="10" fill="#777">leadership</text>

  <!-- Bottom note -->
  <rect x="50" y="228" width="700" height="50" rx="6" fill="#fff" stroke="#e0e0e0" stroke-width="1"/>
  <text x="400" y="249" text-anchor="middle" font-size="12" font-weight="600" fill="#1a1a1a">Don't try to shortcut to Stage 4. The relationship has to be earned.</text>
  <text x="400" y="267" text-anchor="middle" font-size="11" fill="#666">The best strategic partners almost always started as ambassadors first. The progression is the proof of authenticity.</text>
</svg>
